<svg xmlns="http://www.w3.org/2000/svg" version="1.1" xmlns:xlink="http://www.w3.org/1999/xlink" xmlns:svgjs="http://svgjs.dev/svgjs" width="1000" height="1000" viewBox="0 0 1000 1000"><rect width="1000" height="1000" fill="#000000"></rect><g transform="matrix(0.7,0,0,0.7,149.57575757575756,282.1265587044535)"><svg viewBox="0 0 396 247" data-background-color="#ba3b0a" preserveAspectRatio="xMidYMid meet" height="623" width="1000" xmlns="http://www.w3.org/2000/svg" xmlns:xlink="http://www.w3.org/1999/xlink"><g id="tight-bounds" transform="matrix(1,0,0,1,0.2400000000000091,-0.09999999999999432)"><svg viewBox="0 0 395.52 247.2" height="247.2" width="395.52"><g><svg></svg></g><g><svg viewBox="0 0 395.52 247.2" height="247.2" width="395.52"><g transform="matrix(1,0,0,1,94.34504871060172,47.215199999999996)"><svg viewBox="0 0 206.82990257879655 152.7696" height="152.7696" width="206.82990257879655"><g><svg viewBox="0 0 206.82990257879655 152.7696" height="152.7696" width="206.82990257879655"><g><svg viewBox="0 0 206.82990257879655 152.7696" height="152.7696" width="206.82990257879655"><g><svg viewBox="0 0 206.82990257879655 152.7696" height="152.7696" width="206.82990257879655"><g id="textblocktransform"><svg viewBox="0 0 206.82990257879655 152.7696" height="152.7696" width="206.82990257879655" id="textblock"><g><svg viewBox="0 0 206.82990257879655 152.7696" height="152.7696" width="206.82990257879655"><g transform="matrix(1,0,0,1,0,0)"><svg width="206.82990257879655" viewBox="1.4 -34.3 47.25 34.9" height="152.7696" data-palette-color="#ffffff"><path d="M6.15 0.6Q4.5 0.6 3.15-0.45 1.8-1.5 1.4-2.95L1.4-2.95 4.9-4.4Q5.3-3.65 5.5-3.45 5.7-3.25 6.15-3.25L6.15-3.25Q6.5-3.25 6.68-3.4 6.85-3.55 7-3.9L7-3.9 13.45-34.3 17.2-34.3 26.8-8 27.45-5.7 28.1-8 37.8-34.3 41.6-34.3 48.65 0.05 44.55 0.05 39.15-26.85 39.1-27.65 38.95-26.85 29.25 0.05 25.65 0.05 16.1-26.55 15.95-27.65 15.8-26.55 10.9-3.3Q10.55-1.7 9.2-0.55 7.85 0.6 6.15 0.6L6.15 0.6Z" opacity="1" transform="matrix(1,0,0,1,0,0)" fill="#ffffff" class="undefined-text-0" data-fill-palette-color="primary" id="text-0"></path></svg></g></svg></g></svg></g></svg></g></svg></g></svg></g></svg></g><g><path d="M0 123.6c0-68.262 55.338-123.6 123.6-123.6 30.402 0 58.24 10.976 79.768 29.183l-11.147 0c-19.26-14.022-42.974-22.294-68.621-22.295-64.458 0-116.712 52.254-116.712 116.712 0 64.458 52.254 116.712 116.712 116.712 25.647 0 49.361-8.272 68.621-22.295l11.147 0c-21.528 18.206-49.366 29.183-79.768 29.183-68.262 0-123.6-55.338-123.6-123.6z" fill="#ffffff" stroke="transparent" data-fill-palette-color="tertiary"></path></g></svg></g><defs></defs></svg><rect width="395.52" height="247.2" fill="none" stroke="none" visibility="hidden"></rect></g></svg></g></svg>